<?xml version="1.0" encoding="UTF-8" standalone="no"?>
<svg
   xmlns:dc="http://purl.org/dc/elements/1.1/"
   xmlns:cc="http://creativecommons.org/ns#"
   xmlns:rdf="http://www.w3.org/1999/02/22-rdf-syntax-ns#"
   xmlns:svg="http://www.w3.org/2000/svg"
   xmlns="http://www.w3.org/2000/svg"
   xmlns:sodipodi="http://sodipodi.sourceforge.net/DTD/sodipodi-0.dtd"
   xmlns:inkscape="http://www.inkscape.org/namespaces/inkscape"
   width="18px"
   height="18px"
   viewBox="0 0 18 18"
   version="1.1"
   id="svg11"
   sodipodi:docname="volume-muted.svg"
   inkscape:version="1.0.2-2 (e86c870879, 2021-01-15)">
  <metadata
     id="metadata15">
    <rdf:RDF>
      <cc:Work
         rdf:about="">
        <dc:format>image/svg+xml</dc:format>
        <dc:type
           rdf:resource="http://purl.org/dc/dcmitype/StillImage" />
      </cc:Work>
    </rdf:RDF>
  </metadata>
  <sodipodi:namedview
     pagecolor="#ffffff"
     bordercolor="#666666"
     borderopacity="1"
     objecttolerance="10"
     gridtolerance="10"
     guidetolerance="10"
     inkscape:pageopacity="0"
     inkscape:pageshadow="2"
     inkscape:window-width="2400"
     inkscape:window-height="1271"
     id="namedview13"
     showgrid="false"
     inkscape:zoom="46.111111"
     inkscape:cx="4.8197426"
     inkscape:cy="8.1265435"
     inkscape:window-x="-9"
     inkscape:window-y="-9"
     inkscape:window-maximized="1"
     inkscape:current-layer="svg11"
     inkscape:document-rotation="0" />
  <!-- Generator: Sketch 47.1 (45422) - http://www.bohemiancoding.com/sketch -->
  <title
     id="title2">Shape</title>
  <desc
     id="desc4">Created with Sketch.</desc>
  <defs
     id="defs6" />
  <g
     id="Page-1"
     stroke="none"
     stroke-width="1"
     fill="none"
     fill-rule="evenodd">
    <g
       id="Playerview"
       transform="translate(-48.000000, -667.000000)"
       fill="#53585F">
      <path
         d="M48,673 L48,679 L52,679 L57,684 L57,668 L52,673 L48,673 Z M61.5,676 C61.5,674.23 60.48,672.71 59,671.97 L59,680.02 C60.48,679.29 61.5,677.77 61.5,676 Z M59,667.23 L59,669.29 C61.89,670.15 64,672.83 64,676 C64,679.17 61.89,681.85 59,682.71 L59,684.77 C63.01,683.86 66,680.28 66,676 C66,671.72 63.01,668.14 59,667.23 L59,667.23 Z"
         id="Shape" />
    </g>
  </g>
  <path
     style="fill:#ff0000;fill-opacity:1;stroke:#53585f;stroke-width:1.9748;stroke-linecap:butt;stroke-linejoin:miter;stroke-miterlimit:4;stroke-dasharray:none;stroke-opacity:1"
     d="M 17.306773,0.73661519 C 0.73659949,17.306758 0.73659949,17.306758 0.73659949,17.306758"
     id="path19" />
</svg>
